#define d10r_width 16
#define d10r_height 16
static unsigned char d10r_bits[] = {
 0xf8, 0x1f, 0xfe, 0x7f, 0xff, 0xff, 0xff, 0xff, 0xfe, 0x7f, 0xf8, 0x1f,
 0xf8, 0x1f, 0xf8, 0x1f, 0xf8, 0x1f, 0xf8, 0x1f, 0xf8, 0x3f, 0xfe, 0x7f,
 0xff, 0xff, 0xff, 0xff, 0xfe, 0x7f, 0xf8, 0x1f } ;
